<?xml version="1.0" encoding="UTF-8"?>
<svg xmlns="http://www.w3.org/2000/svg" xmlns:xlink="http://www.w3.org/1999/xlink" viewBox="0 0 64 64" width="64px" height="64px">
<g id="surface40139395">
<rect x="0" y="0" width="64" height="64" style="fill:rgb(47.843137%,51.764709%,31.37255%);fill-opacity:1;stroke:none;"/>
<path style=" stroke:none;fill-rule:nonzero;fill:rgb(100%,100%,100%);fill-opacity:1;" d="M 15 3 C 14.253906 3 13.546875 3.257812 13.046875 3.726562 C 12.546875 4.191406 12.265625 4.828125 12.171875 5.484375 C 12.171875 5.492188 12.167969 5.503906 12.167969 5.511719 L 10.765625 18 L 2.949219 18 C 2.011719 18 1.296875 18.722656 1.089844 19.449219 C 0.878906 20.171875 1.019531 21.066406 1.726562 21.636719 C 1.773438 21.675781 1.824219 21.710938 1.875 21.738281 C 3.398438 22.5625 6 23.566406 9.535156 24.480469 C 9.605469 25.035156 9.679688 25.589844 9.777344 26.140625 C 9.777344 26.410156 9.871094 26.640625 9.902344 26.851562 C 9.929688 27.0625 9.980469 27.613281 10 28.054688 C 9.546875 27.933594 9.070312 27.933594 8.617188 28.054688 C 6.292969 28.675781 5.359375 32.246094 6.464844 36.34375 C 7.324219 39.539062 9.121094 41.882812 11.015625 42.355469 C 13.15625 49.113281 17.542969 55.828125 23.136719 59.390625 C 24.472656 61.554688 26.859375 63 29.601562 63 L 33.402344 63 C 36.125 63 38.503906 61.570312 39.84375 59.425781 C 45.460938 55.871094 49.867188 49.132812 52.015625 42.355469 C 53.910156 41.847656 55.703125 39.492188 56.566406 36.34375 C 57.039062 34.683594 57.125 32.933594 56.828125 31.234375 C 56.476562 29.507812 55.605469 28.378906 54.390625 28.058594 C 53.871094 27.925781 53.324219 27.949219 52.816406 28.128906 C 52.816406 26.976562 52.707031 25.832031 52.5 24.707031 C 56.5 23.738281 59.402344 22.632812 61.046875 21.738281 C 61.074219 21.722656 61.101562 21.707031 61.128906 21.6875 C 62.683594 20.640625 61.90625 18 60.03125 18 L 52.214844 18 L 50.753906 5.507812 C 50.753906 5.5 50.753906 5.492188 50.753906 5.484375 C 50.664062 4.851562 50.421875 4.226562 49.9375 3.746094 C 49.453125 3.265625 48.746094 3 48 3 Z M 15 5 L 48 5 C 48.328125 5 48.429688 5.070312 48.527344 5.167969 C 48.621094 5.261719 48.722656 5.445312 48.769531 5.757812 L 48.773438 5.765625 L 49.617188 13 L 13.339844 13 L 14.152344 5.765625 L 14.15625 5.761719 C 14.195312 5.472656 14.292969 5.296875 14.410156 5.1875 C 14.527344 5.078125 14.671875 5 15 5 Z M 13.113281 15 L 49.851562 15 L 50.332031 19.113281 C 50.390625 19.617188 50.816406 20 51.324219 20 L 60.03125 20 C 60.03125 20 60.023438 20.007812 60.027344 20.007812 C 56.804688 21.738281 46.410156 25 31.464844 25 C 16.613281 25 6.289062 21.785156 2.992188 20.046875 C 2.996094 20.035156 2.996094 20.042969 3.007812 20.007812 C 3.007812 20 3.003906 20.003906 3.003906 20 L 11.65625 20 C 12.164062 20 12.59375 19.617188 12.648438 19.109375 Z M 14 17 C 13.449219 17 13 17.449219 13 18 L 13 20 C 13 20.550781 13.449219 21 14 21 C 14.550781 21 15 20.550781 15 20 L 15 18 C 15 17.449219 14.550781 17 14 17 Z M 19 17 C 18.449219 17 18 17.449219 18 18 L 18 20 C 18 20.550781 18.449219 21 19 21 C 19.550781 21 20 20.550781 20 20 L 20 18 C 20 17.449219 19.550781 17 19 17 Z M 24 17 C 23.449219 17 23 17.449219 23 18 L 23 20 C 23 20.550781 23.449219 21 24 21 C 24.550781 21 25 20.550781 25 20 L 25 18 C 25 17.449219 24.550781 17 24 17 Z M 29 17 C 28.449219 17 28 17.449219 28 18 L 28 20 C 28 20.550781 28.449219 21 29 21 C 29.550781 21 30 20.550781 30 20 L 30 18 C 30 17.449219 29.550781 17 29 17 Z M 34 17 C 33.449219 17 33 17.449219 33 18 L 33 20 C 33 20.550781 33.449219 21 34 21 C 34.550781 21 35 20.550781 35 20 L 35 18 C 35 17.449219 34.550781 17 34 17 Z M 39 17 C 38.449219 17 38 17.449219 38 18 L 38 20 C 38 20.550781 38.449219 21 39 21 C 39.550781 21 40 20.550781 40 20 L 40 18 C 40 17.449219 39.550781 17 39 17 Z M 44 17 C 43.449219 17 43 17.449219 43 18 L 43 20 C 43 20.550781 43.449219 21 44 21 C 44.550781 21 45 20.550781 45 20 L 45 18 C 45 17.449219 44.550781 17 44 17 Z M 49 17 C 48.449219 17 48 17.449219 48 18 L 48 20 C 48 20.550781 48.449219 21 49 21 C 49.550781 21 50 20.550781 50 20 L 50 18 C 50 17.449219 49.550781 17 49 17 Z M 11.589844 24.96875 C 16.703125 26.109375 23.40625 27 31.464844 27 C 39.109375 27 45.546875 26.203125 50.554688 25.148438 C 50.910156 27.046875 51.007812 28.988281 50.808594 30.921875 C 50.777344 31.472656 51.191406 31.949219 51.742188 31.984375 L 51.8125 31.984375 C 52.335938 31.988281 52.773438 31.585938 52.8125 31.0625 L 52.8125 30.332031 C 52.875 30.3125 52.929688 30.289062 52.984375 30.261719 C 53.242188 30.058594 53.570312 29.960938 53.894531 29.988281 C 54.328125 30.109375 54.699219 30.722656 54.902344 31.632812 C 55.121094 33.03125 55.027344 34.464844 54.628906 35.824219 L 54.609375 35.824219 C 53.789062 38.828125 52.121094 40.503906 51.230469 40.503906 C 50.769531 40.484375 50.359375 40.78125 50.226562 41.226562 C 48.582031 46.871094 45.246094 52.542969 40.960938 56.164062 C 40.984375 55.910156 41 55.65625 41 55.402344 L 41 49.429688 C 41 46.445312 38.554688 44 35.570312 44 L 27.425781 44 C 24.441406 44 22 46.445312 22 49.429688 L 22 55.402344 C 22 55.652344 22.011719 55.898438 22.035156 56.144531 C 17.753906 52.523438 14.410156 46.859375 12.714844 41.214844 C 12.585938 40.773438 12.175781 40.472656 11.710938 40.492188 C 10.820312 40.492188 9.148438 38.867188 8.335938 35.8125 C 7.472656 32.605469 8.195312 30.210938 9.074219 29.980469 C 9.402344 29.949219 9.730469 30.046875 9.988281 30.25 L 9.988281 30.933594 C 9.988281 31.484375 10.4375 31.933594 10.988281 31.933594 C 11.542969 31.933594 11.992188 31.484375 11.992188 30.933594 C 12.039062 29.449219 11.984375 27.964844 11.832031 26.492188 C 11.832031 26.261719 11.753906 25.992188 11.691406 25.679688 C 11.652344 25.445312 11.625 25.207031 11.589844 24.972656 Z M 14 29 C 13.691406 29 13.398438 29.144531 13.210938 29.386719 C 13.019531 29.632812 12.953125 29.949219 13.03125 30.25 L 15.050781 38.066406 C 15.054688 38.082031 15.058594 38.097656 15.066406 38.113281 C 15.601562 39.816406 17.230469 41 19.113281 41 L 25.171875 41 C 26.902344 41 28.574219 40.074219 29.308594 38.492188 L 29.300781 38.511719 L 30.125 36.828125 C 30.128906 36.828125 30.128906 36.828125 30.128906 36.828125 C 30.367188 36.34375 30.90625 36 31.527344 36 C 32.132812 36 32.664062 36.324219 32.910156 36.785156 L 33.847656 38.542969 C 33.855469 38.554688 33.859375 38.5625 33.867188 38.574219 C 34.707031 40.015625 36.234375 41 37.960938 41 L 44.019531 41 C 45.90625 41 47.535156 39.816406 48.070312 38.113281 C 48.078125 38.09375 48.082031 38.070312 48.085938 38.050781 L 49.972656 30.234375 C 50.042969 29.9375 49.976562 29.621094 49.785156 29.382812 C 49.597656 29.140625 49.304688 29 49 29 Z M 15.292969 31 L 47.730469 31 L 46.160156 37.515625 C 45.886719 38.382812 45.09375 39 44.019531 39 L 37.964844 39 C 36.996094 39 36.105469 38.441406 35.59375 37.566406 L 34.675781 35.84375 C 34.0625 34.695312 32.839844 34 31.527344 34 C 30.175781 34 28.921875 34.738281 28.332031 35.945312 L 27.503906 37.628906 C 27.503906 37.636719 27.5 37.640625 27.496094 37.648438 C 27.15625 38.382812 26.136719 39 25.171875 39 L 19.113281 39 C 18.042969 39 17.246094 38.382812 16.972656 37.515625 L 16.972656 37.511719 Z M 27 49 L 36 49 C 37.105469 49 38 49.894531 38 51 L 38 54 L 34 58 L 34 54.5 C 34 53.117188 32.882812 52 31.5 52 C 30.117188 52 29 53.117188 29 54.5 L 29 58 L 25 54 L 25 51 C 25 49.894531 25.894531 49 27 49 Z M 27 49 "/>
</g>
</svg>
